<svg width="825" height="244" viewBox="0 0 825 244" fill="none" xmlns="http://www.w3.org/2000/svg"><g clip-path="url(#qonto-dark_svg__clip0_2889_100687)" fill="#1D1D1B"><path d="M115.643 238.958c20.564.12 40.809-5.203 58.776-15.452l.892-.526.892.537c16.41 10.197 34.652 16.91 53.644 19.738l4.462-33.635a102.545 102.545 0 01-29.136-8.995l-2.086-1.006 1.483-1.817c17.659-21.498 26.995-48.585 26.995-78.323C231.565 51.362 181.714 0 115.621 0 49.706 0 0 51.362 0 119.479c0 68.117 49.729 119.479 115.643 119.479zm0-205.3c45.367 0 79.579 36.893 79.579 85.821 0 21.864-7.049 42.424-19.833 57.888l-1.227 1.474-1.339-1.348c-15.045-15.084-27.006-33.089-35.182-52.962l-32.628 13.212c9.115 22.24 22.286 42.496 38.808 59.682l1.952 2.011-2.599.972a78.263 78.263 0 01-27.508 4.903c-45.368 0-79.591-36.904-79.591-85.832 0-48.928 34.201-85.82 79.568-85.82zM326.522 74.723c-46.85 0-82.078 36.298-82.078 84.437 0 48.002 35.284 84.095 82.078 84.095 46.795 0 82.078-36.15 82.078-84.095 0-48.139-35.283-84.437-82.078-84.437zm0 134.862c-27.374 0-47.966-21.715-47.966-50.413 0-28.973 20.648-50.825 47.966-50.825 27.319 0 47.967 21.852 47.967 50.825.044 28.286-21.05 50.436-47.967 50.436v-.023zM491.086 111.742c24.541 0 39.132 15.247 39.132 38.756v92.758h33.231v-95.364c0-39.784-28.211-66.368-65.614-66.368-24.864 0-45.534 16.686-45.735 16.915V81.467h-33.364v161.789h33.397v-94.118c0-24.847 20.191-37.396 38.953-37.396zM627.897 243.255a97.33 97.33 0 0022.767-2.983v-33.35a62.363 62.363 0 01-14.847 2.377c-18.896 0-29.728-10-29.728-27.429v-71.569l44.62.194V78.38l-44.62-.331V35.12h-32.505v140.085c0 41.979 20.815 68.049 54.313 68.049zM742.922 74.723c-46.784 0-82.078 36.298-82.078 84.437 0 48.002 35.294 84.095 82.078 84.095 46.784 0 82.078-36.15 82.078-84.095 0-48.139-35.283-84.437-82.078-84.437zm0 134.862c-27.363 0-47.966-21.715-47.966-50.413 0-28.973 20.648-50.825 47.966-50.825s48.022 21.852 48.022 50.825c0 28.286-21.094 50.436-48.022 50.436v-.023z"></path></g><defs><clipPath id="qonto-dark_svg__clip0_2889_100687"><path fill="#fff" d="M0 0h825v244H0z"></path></clipPath></defs></svg>