<svg width="32" height="32" viewBox="0 0 32 32" fill="none" xmlns="http://www.w3.org/2000/svg">
    <circle cx="16" cy="16" r="16" fill="#EBEBE8" />
    <path
        d="M22.3657 8.35585V23.2089V24.2698C21.7026 24.2698 21.4374 23.2089 20.7743 23.2089C20.1112 23.2089 19.846 24.2698 19.1829 24.2698C18.5198 24.2698 18.2546 23.2089 17.5915 23.2089C16.9284 23.2089 16.6632 24.2698 16.0001 24.2698C15.337 24.2698 15.0718 23.2089 14.4087 23.2089C13.7456 23.2089 13.4804 24.2698 12.8173 24.2698C12.1542 24.2698 11.889 23.2089 11.2259 23.2089C10.5628 23.2089 10.2976 24.2698 9.63452 24.2698V23.2089V8.35585C9.63452 7.76916 10.1088 7.29492 10.6955 7.29492H21.3048C21.8904 7.29492 22.3657 7.76916 22.3657 8.35585Z"
        stroke="#1D1D1B" />
    <path
        d="M14.8021 18.2118C14.256 18.7594 13.5289 19.0869 12.7595 19.1318C12.8022 18.363 13.1279 17.6361 13.6734 17.0921C14.2196 16.5447 14.9467 16.2172 15.716 16.1721C15.6733 16.941 15.3477 17.6678 14.8021 18.2118ZM14.8021 13.8018C15.3477 14.3408 15.6733 15.0648 15.716 15.8333C14.9467 15.7951 14.2196 15.4742 13.6734 14.9316C13.1279 14.3926 12.8022 13.6686 12.7595 12.9001C13.5288 12.9381 14.256 13.2591 14.8021 13.8018ZM16.9486 13.7921C17.4947 13.2445 18.2218 12.917 18.9912 12.8721C18.9485 13.641 18.6228 14.3679 18.0773 14.9118C17.5311 15.4593 16.804 15.7868 16.0347 15.8319C16.0773 15.063 16.403 14.3361 16.9486 13.7921ZM16.9486 18.2022C16.403 17.6631 16.077 16.9285 16.0343 16.16C16.8036 16.1982 17.5311 16.5298 18.0773 17.0723C18.6228 17.6114 18.9485 18.3353 18.9912 19.1038C18.2218 19.0658 17.4947 18.7449 16.9486 18.2022Z"
        fill="#1D1D1B" />
</svg>
    