<svg width="32" height="32" viewBox="0 0 32 32" fill="none" xmlns="http://www.w3.org/2000/svg">
    <circle cx="16" cy="16" r="16" fill="#D5C8FB" />
    <path
        d="M11.8008 10.1173L20.6316 6.83838L21.8612 10.1173M11.8008 10.1173L8.85763 10.1171C8.03789 10.1171 7.36719 10.7878 7.36719 11.6076V21.3326C7.36719 22.1524 8.03789 22.8231 8.85763 22.8231H23.054C23.8737 22.8231 24.5444 22.1524 24.5444 21.3326V18.8734M11.8008 10.1173L23.054 10.1171C23.8737 10.1171 24.5444 10.7878 24.5444 11.6076V13.5M25.7707 18.8736H18.952C18.0577 18.8736 17.3125 18.1284 17.3125 17.2341V15.6691C17.3125 14.7749 18.0577 14.0297 18.952 14.0297H25.7707C26.0315 14.0297 26.2551 14.2532 26.2551 14.5141V18.3892C26.2924 18.65 26.0688 18.8736 25.7707 18.8736Z"
        stroke="#1D1D1B" stroke-miterlimit="10" stroke-linecap="round" stroke-linejoin="round" />
    <path
        d="M20.6757 17.1511C21.0488 17.1511 21.3513 16.8486 21.3513 16.4755C21.3513 16.1023 21.0488 15.7998 20.6757 15.7998C20.3025 15.7998 20 16.1023 20 16.4755C20 16.8486 20.3025 17.1511 20.6757 17.1511Z"
        fill="#1D1D1B" />
</svg>
    