<svg width="32" height="32" viewBox="0 0 32 32" fill="none" xmlns="http://www.w3.org/2000/svg">
    <circle cx="16" cy="16" r="16" fill="#C9D5F9" />
    <path
        d="M14.6001 5.9541L14.8689 5.53249C14.7886 5.4813 14.6953 5.4541 14.6001 5.4541V5.9541ZM17.2794 5.9541V5.4541C17.1608 5.4541 17.046 5.49629 16.9556 5.57313L17.2794 5.9541ZM19.1932 7.58082H18.6932H19.1932ZM9.11446 20.1542L9.29002 20.6223C9.48517 20.5492 9.61446 20.3626 9.61446 20.1542H9.11446ZM8.09049 22.3728L7.61317 22.5219L7.61615 22.5309L8.09049 22.3728ZM9.68333 23.5105L9.64498 24.009C9.65774 24.01 9.67053 24.0105 9.68333 24.0105V23.5105ZM22.7673 20.2111H22.2673C22.2673 20.4129 22.3887 20.595 22.575 20.6726L22.7673 20.2111ZM17.2794 8.70755H14.6001V9.70755H17.2794V8.70755ZM14.6001 8.70755C14.2013 8.70755 13.8319 8.57216 13.5707 8.35012L12.923 9.11206C13.3796 9.50016 13.9838 9.70755 14.6001 9.70755V8.70755ZM13.5707 8.35012C13.3119 8.13019 13.1863 7.851 13.1863 7.58082H12.1863C12.1863 8.17352 12.464 8.72185 12.923 9.11206L13.5707 8.35012ZM13.1863 7.58082C13.1863 7.31065 13.3119 7.03146 13.5707 6.81153L12.923 6.04959C12.464 6.43979 12.1863 6.98813 12.1863 7.58082H13.1863ZM13.5707 6.81153C13.8319 6.58949 14.2013 6.4541 14.6001 6.4541V5.4541C13.9838 5.4541 13.3796 5.66148 12.923 6.04959L13.5707 6.81153ZM14.3313 6.37572C15.2242 6.94494 16.0382 6.95741 16.6374 6.80461C16.9302 6.72997 17.1642 6.61816 17.3268 6.52396C17.4084 6.47666 17.4731 6.43315 17.5194 6.39978C17.5426 6.38306 17.5613 6.36881 17.5753 6.3578C17.5823 6.35228 17.5882 6.34757 17.5928 6.34376C17.5951 6.34185 17.5972 6.34016 17.5989 6.33871C17.5998 6.33798 17.6006 6.33732 17.6013 6.33671C17.6017 6.33641 17.602 6.33612 17.6023 6.33585C17.6025 6.33571 17.6027 6.33552 17.6028 6.33545C17.603 6.33526 17.6032 6.33507 17.2794 5.9541C16.9556 5.57313 16.9558 5.57295 16.956 5.57278C16.9561 5.57273 16.9563 5.57255 16.9564 5.57245C16.9567 5.57223 16.9569 5.57203 16.9571 5.57185C16.9576 5.57148 16.9579 5.57116 16.9582 5.5709C16.9589 5.57038 16.9592 5.57008 16.9593 5.56999C16.9596 5.56981 16.9588 5.57046 16.957 5.57185C16.9534 5.57466 16.946 5.58042 16.9348 5.58849C16.9123 5.60469 16.8753 5.6298 16.8254 5.65876C16.7248 5.71706 16.5761 5.78825 16.3904 5.83562C16.0327 5.92683 15.507 5.93929 14.8689 5.53249L14.3313 6.37572ZM17.2794 6.4541C17.4754 6.4541 17.668 6.48698 17.8457 6.54955L18.1778 5.60631C17.8912 5.50538 17.5861 5.4541 17.2794 5.4541V6.4541ZM17.8457 6.54955C18.0235 6.61213 18.1803 6.70225 18.3088 6.81153L18.9565 6.04959C18.7296 5.85676 18.4645 5.70723 18.1778 5.60631L17.8457 6.54955ZM18.3088 6.81153C18.4373 6.92069 18.534 7.04587 18.5981 7.17734L19.497 6.73927C19.3687 6.47602 19.1835 6.24253 18.9565 6.04959L18.3088 6.81153ZM18.5981 7.17734C18.6619 7.30843 18.6932 7.44524 18.6932 7.58082H19.6932C19.6932 7.28915 19.6255 7.00291 19.497 6.73927L18.5981 7.17734ZM18.6932 7.58082C18.6932 7.851 18.5676 8.13019 18.3088 8.35012L18.9565 9.11206C19.4156 8.72185 19.6932 8.17352 19.6932 7.58082H18.6932ZM18.3088 8.35012C18.0476 8.57216 17.6783 8.70755 17.2794 8.70755V9.70755C17.8957 9.70755 18.4999 9.50016 18.9565 9.11206L18.3088 8.35012ZM8.93889 19.686C7.75105 20.1315 7.25935 21.3894 7.61325 22.5219L8.56773 22.2236C8.35276 21.5357 8.65748 20.8595 9.29002 20.6223L8.93889 19.686ZM7.61615 22.5309C7.9212 23.446 8.75259 23.9404 9.64498 24.009L9.72167 23.012C9.135 22.9668 8.71488 22.6648 8.56483 22.2147L7.61615 22.5309ZM9.68333 24.0105H22.1984V23.0105H9.68333V24.0105ZM22.1984 24.0105C23.4524 24.0105 24.405 22.9793 24.405 21.8039H23.405C23.405 22.4488 22.8786 23.0105 22.1984 23.0105V24.0105ZM24.405 21.8039C24.405 20.8924 23.8023 20.1006 22.9596 19.7495L22.575 20.6726C23.0976 20.8904 23.405 21.3502 23.405 21.8039H24.405ZM23.2673 20.2111V15.4895H22.2673V20.2111H23.2673ZM23.2673 15.4895C23.2673 11.1497 19.541 8.7319 15.9409 8.7319V9.7319C19.1672 9.7319 22.2673 11.865 22.2673 15.4895H23.2673ZM15.9409 8.7319C12.3408 8.7319 8.61446 11.1497 8.61446 15.4895H9.61446C9.61446 11.865 12.7146 9.7319 15.9409 9.7319V8.7319ZM8.61446 15.4895V20.1542H9.61446V15.4895H8.61446Z"
        fill="#1D1D1B" />
    <path
        d="M12.7883 16.8431H13.4041C13.336 16.4801 13.336 16.1081 13.4041 15.7451H12.7883C12.7384 15.7451 12.6905 15.7258 12.6552 15.6915C12.6199 15.6572 12.6001 15.6106 12.6001 15.5621C12.6001 15.5136 12.6199 15.467 12.6552 15.4327C12.6905 15.3984 12.7384 15.3791 12.7883 15.3791H13.4888C13.6933 14.6939 14.1209 14.0916 14.7073 13.6626C15.2937 13.2337 16.0074 13.0012 16.7413 13H18.0589C18.1088 13 18.1567 13.0193 18.192 13.0536C18.2273 13.0879 18.2472 13.1345 18.2472 13.183C18.2472 13.2315 18.2273 13.2781 18.192 13.3124C18.1567 13.3467 18.1088 13.366 18.0589 13.366H16.7413C16.1076 13.367 15.4903 13.562 14.9771 13.9233C14.4639 14.2847 14.0808 14.794 13.8822 15.3791H17.306C17.3559 15.3791 17.4038 15.3984 17.4391 15.4327C17.4744 15.467 17.4942 15.5136 17.4942 15.5621C17.4942 15.6106 17.4744 15.6572 17.4391 15.6915C17.4038 15.7258 17.3559 15.7451 17.306 15.7451H13.7845C13.7112 16.1076 13.7112 16.4806 13.7845 16.8431H17.306C17.3559 16.8431 17.4038 16.8624 17.4391 16.8967C17.4744 16.9311 17.4942 16.9776 17.4942 17.0261C17.4942 17.0747 17.4744 17.1212 17.4391 17.1555C17.4038 17.1899 17.3559 17.2092 17.306 17.2092H13.8822C14.0808 17.7942 14.4639 18.3035 14.9771 18.6649C15.4903 19.0263 16.1076 19.2213 16.7413 19.2222H18.0589C18.1088 19.2222 18.1567 19.2415 18.192 19.2758C18.2273 19.3101 18.2472 19.3567 18.2472 19.4052C18.2472 19.4538 18.2273 19.5003 18.192 19.5346C18.1567 19.569 18.1088 19.5882 18.0589 19.5882H16.7413C16.0074 19.5871 15.2937 19.3546 14.7073 18.9256C14.1209 18.4966 13.6933 17.8944 13.4888 17.2092H12.7883C12.7384 17.2092 12.6905 17.1899 12.6552 17.1555C12.6199 17.1212 12.6001 17.0747 12.6001 17.0261C12.6001 16.9776 12.6199 16.9311 12.6552 16.8967C12.6905 16.8624 12.7384 16.8431 12.7883 16.8431Z"
        stroke="#1D1D1B" stroke-width="0.499512" />
</svg>
    