<svg width="32" height="32" viewBox="0 0 32 32" fill="none" xmlns="http://www.w3.org/2000/svg">
    <circle cx="16" cy="16" r="16" fill="#CFF5D4" />
    <path
        d="M17.8964 15.4982H19.9494M11.3464 24.9031V24.4384M20.8453 24.9037V24.4389M11.5525 24.9037V24.4389M9.57098 19.0944H10.0357M9.57098 12.3556H10.0357M10.8694 7.70801H21.1731C22.965 7.70801 24.4175 9.16056 24.4175 10.9524V20.6538C24.4175 22.4456 22.965 23.8981 21.1731 23.8981H10.8694C9.07755 23.8981 7.625 22.4456 7.625 20.6538V10.9524C7.625 9.16056 9.07755 7.70801 10.8694 7.70801ZM21.6464 11.2478V20.1251C21.6464 20.6293 21.2377 21.0381 20.7335 21.0381H11.3236C10.8194 21.0381 10.4106 20.6293 10.4106 20.1251V11.2478C10.4106 10.7436 10.8194 10.3348 11.3236 10.3348H20.7335C21.2377 10.3348 21.6464 10.7436 21.6464 11.2478Z"
        stroke="#1D1D1B" stroke-miterlimit="10" stroke-linecap="round" stroke-linejoin="round" />
</svg>
    